# Blender 3.6.1
# www.blender.org
o obj_explorernumber_alpha
v 31.978394 30.282166 -82.555649
v 30.600071 39.713394 -82.536499
v 32.778641 30.384605 -75.408157
v 31.400316 39.815834 -75.389000
v -31.977859 30.282166 -82.555656
v -32.778107 30.384605 -75.408157
v -30.599533 39.713394 -82.536499
v -31.399780 39.815834 -75.389000
vn 0.9832 0.1439 -0.1121
vn -0.9832 0.1439 -0.1121
vt 0.786645 0.096530
vt 0.786645 0.906186
vt 0.175634 0.096530
vt 0.175634 0.906186
vt 0.205329 0.096530
vt 0.816370 0.096530
vt 0.205329 0.906186
vt 0.816370 0.906186
s 1
usemtl obj_explorernumber_alpha
f 1/1/1 2/2/1 3/3/1
f 3/3/1 2/2/1 4/4/1
f 5/5/2 6/6/2 7/7/2
f 7/7/2 6/6/2 8/8/2
